<?xml version="1.0" standalone="no"?>
<!DOCTYPE svg PUBLIC "-//W3C//DTD SVG 20010904//EN"
 "http://www.w3.org/TR/2001/REC-SVG-20010904/DTD/svg10.dtd">
<svg version="1.0" xmlns="http://www.w3.org/2000/svg"
 width="1073.000000pt" height="1073.000000pt" viewBox="0 0 1073.000000 1073.000000"
 preserveAspectRatio="xMidYMid meet">
<metadata>
Created by potrace 1.11, written by Peter Selinger 2001-2013
</metadata>
<g transform="translate(0.000000,1073.000000) scale(0.100000,-0.100000)"
fill="#000000" stroke="none">
<path d="M4920 10724 c-25 -2 -117 -14 -205 -25 -1218 -159 -2287 -683 -3151
-1544 -260 -260 -460 -505 -670 -820 -375 -565 -639 -1189 -779 -1838 -37
-175 -62 -328 -91 -552 -25 -198 -31 -845 -10 -1070 96 -1014 454 -1944 1057
-2750 378 -505 803 -905 1339 -1260 221 -147 329 -210 549 -320 547 -273 1081
-440 1677 -525 126 -18 196 -20 735 -20 472 0 619 3 709 15 950 125 1896 525
2635 1113 1082 862 1788 2082 1990 3442 18 119 25 208 25 316 l0 152 -32 48
c-39 58 -110 100 -183 109 -46 5 -1146 94 -2630 211 -371 30 -608 44 -637 40
-110 -17 -192 -110 -210 -237 -33 -242 -84 -422 -168 -594 -200 -410 -576
-732 -1000 -856 -429 -126 -856 -92 -1239 101 -462 231 -779 650 -888 1169
-23 109 -26 151 -27 311 0 137 5 211 18 285 48 263 148 497 306 718 67 93 262
283 370 360 178 126 415 230 640 279 92 20 133 22 325 22 190 0 234 -3 325
-23 273 -58 514 -171 728 -343 107 -85 144 -102 222 -102 124 -1 82 -43 953
943 1322 1496 1389 1573 1408 1615 12 26 19 64 19 103 0 106 -22 140 -178 271
-228 192 -530 406 -747 530 -662 378 -1305 599 -2035 698 -184 25 -220 27
-650 29 -250 1 -475 1 -500 -1z"/>
</g>
</svg>
