<svg xmlns="http://www.w3.org/2000/svg" xmlns:xlink="http://www.w3.org/1999/xlink" viewBox="0 0 738.95 925.32"><defs><style>.cls-1,.cls-6,.cls-7{fill:none;}.cls-2{fill:#1a1a1a;}.cls-3{fill:#f2f2f2;}.cls-4{clip-path:url(#clip-path);}.cls-5{clip-path:url(#clip-path-3);}.cls-6{stroke:#999;stroke-width:15px;}.cls-6,.cls-7{stroke-linecap:round;stroke-linejoin:round;}.cls-7{stroke:#f2f2f2;stroke-width:2px;}</style><clipPath id="clip-path"><path class="cls-1" d="M522,436.09a112.5,112.5,0,1,1-37.7-93.31l65.36-74L608.65,202l-.26-.22c-82.47-72.63-201.94-97.09-310.77-53.12C144,210.67,69.84,385.47,131.89,539.05S368.75,766.83,522.33,704.78C631,660.89,699.87,560.57,708.94,451.26c0-.08,0-.16,0-.24Z"/></clipPath><clipPath id="clip-path-3"><circle class="cls-1" cx="409.5" cy="427.32" r="299.92"/></clipPath></defs><title>Black Bold</title><g id="black_bold" data-name="black bold"><path class="cls-2" d="M366.75,910.32a50,50,0,0,1-23.63-94,397.42,397.42,0,0,1-151.35-60.08A394.84,394.84,0,0,1,216.7,82.66a50,50,0,0,1,92.67-37.5,50,50,0,0,1,60.69,37.11c6.15,26-10.05,52.84-36.12,59.83a298.36,298.36,0,0,0-34.42,11.53,294.92,294.92,0,1,0,221,546.89A300.19,300.19,0,0,0,551,686.16a50,50,0,0,1,70.28,25.39l0,.1a50.11,50.11,0,0,1-19.78,60.76,50,50,0,0,1-92.83,37.1c-10.7,2.77-21.53,5.09-32.42,7a50,50,0,0,1-24.38,93.86Z"/><path class="cls-3" d="M263.48,30A34.83,34.83,0,0,1,296,52.06l4.46,11.21q6-1.8,12-3.4a35,35,0,0,1,43.06,25.85c4.3,18.19-7.1,37-25.42,41.89a314.91,314.91,0,0,0-36.15,12.11,309.92,309.92,0,1,0,232.2,574.7,312.24,312.24,0,0,0,32-15.08,35.13,35.13,0,0,1,16.71-4.25,34.76,34.76,0,0,1,32.48,22l.05.12a35.05,35.05,0,0,1-15.87,43.68q-4.37,2.36-8.85,4.64l4.48,11.24a35,35,0,1,1-65,25.89l-4.46-11.21a378.31,378.31,0,0,1-73.1,14v19.82h7.75a35,35,0,1,1-.39,70H366.75a35,35,0,1,1,.39-70h7.36V805.39A380.09,380.09,0,0,1,141.74,157.94a376.73,376.73,0,0,1,93.84-68.39L231,78A35,35,0,0,1,263.48,30m0-30a65,65,0,0,0-65,65,63.91,63.91,0,0,0,.83,10.37,410,410,0,0,0-15.82,693.37,412.63,412.63,0,0,0,128.6,56.38,64.39,64.39,0,0,0-9.94,28,65,65,0,0,0,64.6,72.19h85.11a65,65,0,0,0,62.37-84.55,65.07,65.07,0,0,0,104.33-62.58,65.11,65.11,0,0,0,16.68-72l0-.1,0-.12a65,65,0,0,0-91.37-33,285.9,285.9,0,0,1-28.93,13.63A279.92,279.92,0,1,1,305.14,167.53a285.45,285.45,0,0,1,32.68-10.94,65.32,65.32,0,0,0,39.07-29.38A64.81,64.81,0,0,0,321.4,28.69q-1.95,0-3.9.12A64.62,64.62,0,0,0,263.48,0Z"/><path class="cls-2" d="M588.74,724.57v0a15,15,0,0,0-21.09-7.63,334.24,334.24,0,0,1-34,16.05A329.92,329.92,0,1,1,286.41,121.18a332.61,332.61,0,0,1,38.46-12.89c7.89-2.11,13-10,11.13-18A15,15,0,0,0,317.57,79.2q-14.51,3.87-28.75,9c-.05-.16-.1-.32-.16-.47L277.41,59.46a15,15,0,0,0-27.87,11.09l11.25,28.24c.09.22.19.43.28.64A360,360,0,0,0,394.5,786.72v58.6H367.14a15.26,15.26,0,0,0-15.3,13.3,15,15,0,0,0,14.91,16.7h85.11A15.26,15.26,0,0,0,467.16,862a15,15,0,0,0-14.91-16.71H424.5V786.78a357.68,357.68,0,0,0,104.77-20.12c0,.11.07.23.12.35l11.25,28.26a15,15,0,0,0,27.88-11.1l-11.26-28.26c0-.12-.11-.23-.16-.35q12.71-5.68,24.84-12.25A15,15,0,0,0,588.74,724.57Z"/><g class="cls-4"><g id="globe-2" data-name="globe"><circle class="cls-2" cx="409.5" cy="427.32" r="299.92"/><g class="cls-5"><g id="_Group_" data-name="&lt;Group&gt;"><polyline class="cls-6" points="217.09 665.89 344.75 614.52 465.73 565.84 588.32 516.51 714.38 465.79"/><polyline class="cls-6" points="124.22 541.38 265.34 484.59 409.67 426.52 555.6 367.8 695.12 311.65"/><path class="cls-6" d="M603.15,186.78A305.47,305.47,0,0,1,694.8,310.85l.32.8a307.19,307.19,0,0,1-131.74,380,311.06,311.06,0,0,1-79,32.09A307.2,307.2,0,0,1,124.22,541.38l-.32-.8A307.21,307.21,0,0,1,257,158.81a308,308,0,0,1,346.11,28Z"/><path class="cls-6" d="M484.36,723.72a462.2,462.2,0,0,1-219-239.13l-.32-.8a462.1,462.1,0,0,1-8-325"/><path class="cls-6" d="M336.27,127.23A462.07,462.07,0,0,1,555.28,367l.32.8a462.2,462.2,0,0,1,7.78,323.84"/><polyline class="cls-6" points="524.37 711.57 524.05 710.76 465.73 565.84 409.67 426.52 353.61 287.19 294.65 140.67"/><polyline class="cls-6" points="104.07 387.61 232.07 336.1 353.61 287.19 476.75 237.64 603.15 186.78"/></g></g></g><path class="cls-3" d="M367.74,322.83A112.5,112.5,0,1,0,522,436.09L709.2,451A300.38,300.38,0,0,0,608.89,201.69L484.34,342.78A112.49,112.49,0,0,0,367.74,322.83Z"/><path class="cls-3" d="M409.4,127.32c118.65,0,231,70.88,278.18,187.65,62,153.58-12.15,328.38-165.73,390.43A298.92,298.92,0,0,1,409.6,727.32c-118.65,0-231-70.88-278.18-187.65-62-153.58,12.15-328.38,165.73-390.43A299.15,299.15,0,0,1,409.4,127.32m0-90h0a391,391,0,1,0,113,16.77,388,388,0,0,0-113-16.77Z"/><polygon class="cls-3" points="589.43 223.73 608.89 201.69 620.47 194.2 641.47 212.2 672.47 253.2 706.47 308.2 722.47 358.2 731.47 419.2 728.47 468.2 709.2 451.04 670.99 447.99 589.43 223.73"/></g><path class="cls-7" d="M522,436.09a112.5,112.5,0,1,1-37.7-93.31l65.36-74L608.65,202l-.26-.22c-82.47-72.63-201.94-97.09-310.77-53.12C144,210.67,69.84,385.47,131.89,539.05S368.75,766.83,522.33,704.78C631,660.89,699.87,560.57,708.94,451.26c0-.08,0-.16,0-.24Z"/><path class="cls-3" d="M409.85,126.71a301,301,0,0,1,198.54,75l.26.22L549.7,268.74l-65.36,74A112.5,112.5,0,1,0,522,436.09L709,451c0,.08,0,.16,0,.24-9.07,109.31-78,209.63-186.61,253.52A299,299,0,0,1,410.07,726.7c-118.64,0-231-70.89-278.18-187.65C69.84,385.47,144,210.67,297.62,148.62a298.84,298.84,0,0,1,112.23-21.91m0-30a330,330,0,1,0,329,357l0-.33a30,30,0,0,0-27.52-32.3L524.43,406.19c-.81-.07-1.62-.1-2.42-.1a30,30,0,0,0-29.87,27.59,82.53,82.53,0,1,1-27.63-68.39,30,30,0,0,0,42.32-2.65l65.36-74,58.95-66.79a30,30,0,0,0-2.62-42.32l-.06-.06-.19-.17,0,0A331.14,331.14,0,0,0,409.85,96.71v0Z"/></g></svg>