<svg xmlns="http://www.w3.org/2000/svg" xmlns:xlink="http://www.w3.org/1999/xlink" viewBox="0 0 628.98 630"><defs><style>.cls-1,.cls-5,.cls-6{fill:none;}.cls-2{clip-path:url(#clip-path);}.cls-3{fill:#f2f2f2;}.cls-4{clip-path:url(#clip-path-3);}.cls-5{stroke:#4d4d4d;stroke-width:15px;}.cls-5,.cls-6{stroke-linecap:round;stroke-linejoin:round;}.cls-6{stroke:#1a1a1a;stroke-width:2px;}.cls-7{fill:#1a1a1a;}</style><clipPath id="clip-path"><path class="cls-1" d="M427.07,324.39a112.51,112.51,0,1,1-37.7-93.31l65.36-74,58.94-66.79-.25-.22C431,17.41,311.48-7.06,202.65,36.91,49.07,99-25.13,273.77,36.92,427.35S273.77,655.13,427.35,593.08C536,549.18,604.9,448.86,614,339.55c0-.08,0-.16,0-.24Z"/></clipPath><clipPath id="clip-path-3"><circle class="cls-1" cx="314.68" cy="315.66" r="299.92"/></clipPath></defs><title>White Minimal</title><g id="white_minimal" data-name="white minimal"><g class="cls-2"><g id="globe-2" data-name="globe"><circle class="cls-3" cx="314.68" cy="315.66" r="299.92"/><g class="cls-4"><g id="_Group_" data-name="&lt;Group&gt;"><polyline class="cls-5" points="122.11 554.19 249.78 502.81 370.76 454.13 493.34 404.81 619.4 354.08"/><polyline class="cls-5" points="29.25 429.67 170.37 372.89 314.7 314.81 460.63 256.09 600.15 199.95"/><path class="cls-5" d="M508.18,75.07a305.39,305.39,0,0,1,91.64,124.08l.33.8a307.21,307.21,0,0,1-131.74,380,311.59,311.59,0,0,1-79,32.1A307.17,307.17,0,0,1,29.25,429.67l-.32-.8A307.16,307.16,0,0,1,162.07,47.11a308,308,0,0,1,346.11,28Z"/><path class="cls-5" d="M389.39,612a462.29,462.29,0,0,1-219-239.13l-.32-.8a462.1,462.1,0,0,1-8-325"/><path class="cls-5" d="M241.3,15.52a462.14,462.14,0,0,1,219,239.77l.32.8a462.94,462.94,0,0,1,32.71,148.72,463.58,463.58,0,0,1-24.93,175.11"/><polyline class="cls-5" points="429.4 599.86 429.08 599.06 370.76 454.13 314.7 314.81 258.64 175.49 199.67 28.96"/><polyline class="cls-5" points="9.09 275.9 137.1 224.4 258.64 175.49 381.78 125.94 508.18 75.07"/></g></g></g><path class="cls-3" d="M272.77,211.12a112.5,112.5,0,1,0,154.3,113.27l187.16,14.94A300.46,300.46,0,0,0,513.91,90L389.37,231.08A112.48,112.48,0,0,0,272.77,211.12Z"/><path class="cls-3" d="M314.58,15.66c118.65,0,231,70.88,278.18,187.65,62,153.58-12.15,328.38-165.73,390.43a299.15,299.15,0,0,1-112.25,21.92c-118.66,0-231-70.88-278.19-187.65-62-153.58,12.15-328.38,165.73-390.43A299,299,0,0,1,314.58,15.66m0-90h0A389.83,389.83,0,0,0-46.85,461.72,389.83,389.83,0,0,0,673.6,468a390.1,390.1,0,0,0-359-542.35Z"/><polygon class="cls-3" points="494.46 112.02 513.91 89.98 525.5 82.5 546.5 100.5 577.5 141.5 611.5 196.5 627.5 246.5 636.5 307.5 633.5 356.5 614.23 339.33 576.02 336.28 494.46 112.02"/></g><path class="cls-6" d="M427.07,324.39a112.51,112.51,0,1,1-37.7-93.31l65.36-74,58.94-66.79-.25-.22C431,17.41,311.48-7.06,202.65,36.91,49.07,99-25.13,273.77,36.92,427.35S273.77,655.13,427.35,593.08C536,549.18,604.9,448.86,614,339.55c0-.08,0-.16,0-.24Z"/><path class="cls-7" d="M314.88,15A301.07,301.07,0,0,1,513.42,90l.25.23L454.73,157l-65.36,74a112.5,112.5,0,1,0,37.7,93.31L614,339.31c0,.08,0,.16,0,.24-9.06,109.31-78,209.63-186.61,253.53A299.15,299.15,0,0,1,315.1,615c-118.64,0-231-70.89-278.18-187.65C-25.13,273.77,49.07,99,202.65,36.91A299,299,0,0,1,314.88,15m0-15h0a315,315,0,0,0,.24,630A315.06,315.06,0,0,0,628.91,340.79l0-.24a15,15,0,0,0-13.76-16.19L428.26,309.43c-.4,0-.81-.05-1.21-.05a15,15,0,0,0-14.93,13.8,97.55,97.55,0,1,1-32.67-80.85A15,15,0,0,0,400.62,241L466,167l58.95-66.78A15,15,0,0,0,523.6,79l-.08-.07-.17-.15A316.09,316.09,0,0,0,314.88,0Z"/></g></svg>