<svg xmlns="http://www.w3.org/2000/svg" xmlns:xlink="http://www.w3.org/1999/xlink" viewBox="0 0 738.81 925.32"><defs><style>.cls-1,.cls-6,.cls-7{fill:none;}.cls-2{fill:#f2f2f2;}.cls-3{fill:#1a1a1a;}.cls-4{clip-path:url(#clip-path);}.cls-5{clip-path:url(#clip-path-3);}.cls-6{stroke:#4d4d4d;stroke-width:15px;}.cls-6,.cls-7{stroke-linecap:round;stroke-linejoin:round;}.cls-7{stroke:#1a1a1a;stroke-width:2px;}</style><clipPath id="clip-path"><path class="cls-1" d="M521.9,436.05a112.5,112.5,0,1,1-37.7-93.31l65.35-74,59-66.78-.25-.23c-82.48-72.62-201.95-97.08-310.78-53.11C143.89,210.63,69.69,385.43,131.74,539S368.6,766.79,522.18,704.74c108.64-43.89,177.54-144.21,186.61-253.52a2.11,2.11,0,0,1,0-.25Z"/></clipPath><clipPath id="clip-path-3"><circle class="cls-1" cx="409.5" cy="427.32" r="299.92"/></clipPath></defs><title>White Bold</title><g id="white_bold" data-name="white bold"><path class="cls-2" d="M366.75,910.32a50,50,0,0,1-23.63-94,397.42,397.42,0,0,1-151.35-60.08A394.84,394.84,0,0,1,216.7,82.66a50,50,0,0,1,92.68-37.5,50,50,0,0,1,60.68,37.11c6.15,26-10.05,52.84-36.12,59.83a298.36,298.36,0,0,0-34.42,11.53,294.92,294.92,0,1,0,221,546.89A300.19,300.19,0,0,0,551,686.16a50,50,0,0,1,70.28,25.39l0,.13a50.1,50.1,0,0,1-19.79,60.73,50,50,0,0,1-92.83,37.1c-10.7,2.77-21.53,5.09-32.42,7a50,50,0,0,1-24.38,93.86Z"/><path class="cls-3" d="M263.48,30A34.83,34.83,0,0,1,296,52.06l4.46,11.21q6-1.8,12-3.4a35,35,0,0,1,43.06,25.85c4.3,18.19-7.1,37-25.42,41.89a315.56,315.56,0,0,0-36.15,12.11,309.92,309.92,0,1,0,232.2,574.7,311.25,311.25,0,0,0,32-15.08,35.13,35.13,0,0,1,16.71-4.25,34.78,34.78,0,0,1,32.49,22l0,.11a35.05,35.05,0,0,1-15.87,43.68q-4.37,2.36-8.85,4.64l4.48,11.24a35,35,0,1,1-65,25.89l-4.46-11.21a378.31,378.31,0,0,1-73.1,14v19.82h7.75a35,35,0,1,1-.39,70H366.75a35,35,0,1,1,.39-70h7.36V805.39A380.09,380.09,0,0,1,141.74,157.94a376.73,376.73,0,0,1,93.84-68.39L231,78A35,35,0,0,1,263.48,30m0-30a65,65,0,0,0-65,65,63.88,63.88,0,0,0,.83,10.36,410,410,0,0,0-15.82,693.37,412.63,412.63,0,0,0,128.6,56.38,64.39,64.39,0,0,0-9.94,28,65,65,0,0,0,64.6,72.19h85.11a65,65,0,0,0,62.37-84.55,65.07,65.07,0,0,0,104.33-62.58,65.11,65.11,0,0,0,16.68-72l-.06-.15a64.64,64.64,0,0,0-60.37-41,65.34,65.34,0,0,0-31,7.88,282.71,282.71,0,0,1-28.93,13.64A279.92,279.92,0,1,1,305.14,167.53a285.45,285.45,0,0,1,32.68-10.94,65.32,65.32,0,0,0,39.07-29.38A64.81,64.81,0,0,0,321.4,28.69q-1.95,0-3.9.12A64.62,64.62,0,0,0,263.48,0Z"/><path class="cls-2" d="M588.74,724.57v0a15,15,0,0,0-21.09-7.63,334.24,334.24,0,0,1-34,16.05A329.92,329.92,0,1,1,286.41,121.18a332.61,332.61,0,0,1,38.46-12.89c7.89-2.11,13-10,11.13-18A15,15,0,0,0,317.57,79.2q-14.51,3.87-28.75,9c-.05-.16-.1-.32-.16-.47L277.41,59.46a15,15,0,0,0-27.87,11.09l11.25,28.24c.09.22.19.43.28.64A360,360,0,0,0,394.5,786.72v58.6H367.14a15.25,15.25,0,0,0-15.29,13.3,15,15,0,0,0,14.9,16.7h85.11A15.26,15.26,0,0,0,467.16,862a15,15,0,0,0-14.91-16.71H424.5V786.78a357.68,357.68,0,0,0,104.77-20.12c0,.11.07.23.12.35l11.26,28.26a15,15,0,0,0,27.87-11.1l-11.26-28.26c0-.12-.11-.23-.16-.35q12.71-5.68,24.84-12.25A15,15,0,0,0,588.74,724.57Z"/><g class="cls-4"><g id="globe-2" data-name="globe"><circle class="cls-2" cx="409.5" cy="427.32" r="299.92"/><g class="cls-5"><g id="_Group_" data-name="&lt;Group&gt;"><polyline class="cls-6" points="216.94 665.85 344.61 614.48 465.58 565.8 588.17 516.47 714.23 465.74"/><polyline class="cls-6" points="124.08 541.34 265.2 484.55 409.52 426.48 555.46 367.75 694.97 311.61"/><path class="cls-6" d="M603,186.74a305.38,305.38,0,0,1,91.65,124.07l.32.8a307.19,307.19,0,0,1-131.74,380,312,312,0,0,1-79,32.09A307.18,307.18,0,0,1,124.08,541.34l-.33-.8A307.2,307.2,0,0,1,256.9,158.77a308,308,0,0,1,346.1,28Z"/><path class="cls-6" d="M484.21,723.68a462.23,462.23,0,0,1-219-239.13l-.33-.8a462,462,0,0,1-8-325"/><path class="cls-6" d="M336.12,127.19A462,462,0,0,1,555.13,367l.32.8a462.2,462.2,0,0,1,7.78,323.84"/><polyline class="cls-6" points="524.22 711.52 523.9 710.72 465.58 565.8 409.52 426.48 353.46 287.15 294.5 140.63"/><polyline class="cls-6" points="103.92 387.57 231.92 336.06 353.46 287.15 476.61 237.6 603 186.74"/></g></g></g><path class="cls-2" d="M367.59,322.79A112.5,112.5,0,1,0,521.9,436.05L709.05,451A300.38,300.38,0,0,0,608.74,201.65L484.2,342.74A112.51,112.51,0,0,0,367.59,322.79Z"/><path class="cls-2" d="M409.4,127.32c118.65,0,231,70.88,278.18,187.65,62,153.58-12.15,328.38-165.73,390.43A298.92,298.92,0,0,1,409.6,727.32c-118.65,0-231-70.88-278.18-187.65-62-153.58,12.15-328.38,165.73-390.43A299.15,299.15,0,0,1,409.4,127.32m0-90h0a391,391,0,1,0,113,16.77,388,388,0,0,0-113-16.77Z"/><polygon class="cls-2" points="589.29 223.68 608.74 201.65 620.33 194.16 641.33 212.16 672.33 253.16 706.33 308.16 722.33 358.16 731.33 419.16 728.33 468.16 709.05 450.99 670.84 447.94 589.29 223.68"/></g><path class="cls-7" d="M521.9,436.05a112.5,112.5,0,1,1-37.7-93.31l65.35-74,59-66.78-.25-.23c-82.48-72.62-201.95-97.08-310.78-53.11C143.89,210.63,69.69,385.43,131.74,539S368.6,766.79,522.18,704.74c108.64-43.89,177.54-144.21,186.61-253.52a2.11,2.11,0,0,1,0-.25Z"/><path class="cls-3" d="M409.7,126.66a301.14,301.14,0,0,1,198.55,75l.25.22-59,66.78-65.35,74a112.5,112.5,0,1,0,37.7,93.31L708.81,451a2.11,2.11,0,0,0,0,.25c-9.07,109.31-78,209.63-186.61,253.52a299,299,0,0,1-112.25,21.92c-118.65,0-231-70.89-278.19-187.65C69.69,385.43,143.89,210.63,297.47,148.58A299.09,299.09,0,0,1,409.7,126.66m0-30a330,330,0,1,0,329,357l0-.33a30,30,0,0,0-27.52-32.3L524.28,406.15c-.81-.07-1.62-.1-2.42-.1A30,30,0,0,0,492,433.64a82.53,82.53,0,1,1-27.63-68.39,30,30,0,0,0,42.33-2.66l65.35-74,59-66.78a30,30,0,0,0-2.63-42.34l-.05,0-.21-.18A331.06,331.06,0,0,0,409.7,96.66v0Z"/></g></svg>