<svg xmlns="http://www.w3.org/2000/svg" xmlns:xlink="http://www.w3.org/1999/xlink" viewBox="0 0 718.81 885.32"><defs><style>.cls-1,.cls-6,.cls-7{fill:none;}.cls-2{fill:#f2f2f2;}.cls-3{fill:#1a1a1a;}.cls-4{clip-path:url(#clip-path);}.cls-5{clip-path:url(#clip-path-3);}.cls-6{stroke:#4d4d4d;stroke-width:15px;}.cls-6,.cls-7{stroke-linecap:round;stroke-linejoin:round;}.cls-7{stroke:#1a1a1a;stroke-width:2px;}</style><clipPath id="clip-path"><path class="cls-1" d="M501.9,416.05a112.5,112.5,0,1,1-37.7-93.31l65.35-74,59-66.78-.26-.22c-82.47-72.63-201.94-97.09-310.77-53.12C123.89,190.63,49.69,365.43,111.74,519S348.6,746.79,502.18,684.74c108.64-43.89,177.54-144.21,186.61-253.52a2.11,2.11,0,0,1,0-.25Z"/></clipPath><clipPath id="clip-path-3"><circle class="cls-1" cx="389.5" cy="407.32" r="299.92"/></clipPath></defs><title>White</title><g id="White"><path class="cls-2" d="M346.75,870.32a30,30,0,1,1,.39-60H359.5V780.81A374.89,374.89,0,0,1,221.91,71.94l-6.3-15.84a30,30,0,1,1,55.74-22.19l6.18,15.51q8.09-2.56,16.17-4.72a30,30,0,0,1,36.9,22.17c3.68,15.59-6.11,31.7-21.84,35.91A321.11,321.11,0,0,0,272,115.08,314.92,314.92,0,1,0,508,699.06a318.09,318.09,0,0,0,32.51-15.32,30.1,30.1,0,0,1,14.33-3.65,30,30,0,0,1,14.28,56.41q-6.29,3.4-12.81,6.62l6.17,15.51a30,30,0,1,1-55.74,22.19l-6.17-15.48a372.55,372.55,0,0,1-81,15.57v29.41h12.75a30,30,0,1,1-.39,60Z"/><path class="cls-3" d="M243.47,30a15,15,0,0,1,13.94,9.46L268.66,67.7c.06.15.11.31.16.47q14.24-5.1,28.75-9a14.83,14.83,0,0,1,3.83-.51A15,15,0,0,1,316,70.33c1.88,7.94-3.24,15.85-11.13,18A329.92,329.92,0,1,0,547.64,696.92a15,15,0,0,1,21.09,7.63v0a15,15,0,0,1-6.8,18.74q-12.13,6.59-24.84,12.25c0,.12.11.23.16.35l11.26,28.26a15,15,0,1,1-27.87,11.1L509.39,747c-.05-.12-.08-.23-.12-.35A357.35,357.35,0,0,1,404.5,766.78v58.54h27.75A15,15,0,0,1,447.16,842a15.26,15.26,0,0,1-15.3,13.29H346.75a15,15,0,0,1-14.9-16.7,15.24,15.24,0,0,1,15.29-13.3H374.5v-58.6A359.88,359.88,0,0,1,241.07,79.43l-.28-.63L229.54,50.55A15,15,0,0,1,243.47,30m0-30h0a45,45,0,0,0-41.81,61.66l1.3,3.25a390,390,0,0,0-28.44,667.17,390.83,390.83,0,0,0,170,62.31v1a45,45,0,0,0,2.25,89.92h85.11a45,45,0,0,0,2.64-89.94v-.86a388.11,388.11,0,0,0,57.15-11l1.12,2.83a45,45,0,0,0,83.62-33.3l-1.14-2.85,1-.53a45.05,45.05,0,0,0,20.41-56.14l0-.07a44.71,44.71,0,0,0-41.8-28.39,45.19,45.19,0,0,0-21.48,5.46,302.9,302.9,0,0,1-31,14.6A299.92,299.92,0,1,1,277.65,129a303.75,303.75,0,0,1,35-11.72A45.51,45.51,0,0,0,339.5,97.45a44.36,44.36,0,0,0,5.7-34,45,45,0,0,0-55.37-33.21l-3.43.93-1.11-2.78A44.78,44.78,0,0,0,243.48,0Z"/><g class="cls-4"><g id="globe-2" data-name="globe"><circle class="cls-2" cx="389.5" cy="407.32" r="299.92"/><g class="cls-5"><g id="_Group_" data-name="&lt;Group&gt;"><polyline class="cls-6" points="196.94 645.85 324.61 594.48 445.58 545.8 568.17 496.47 694.23 445.74"/><polyline class="cls-6" points="104.08 521.34 245.19 464.55 389.52 406.48 535.45 347.75 674.97 291.61"/><path class="cls-6" d="M583,166.74a305.38,305.38,0,0,1,91.65,124.07l.32.8a307.19,307.19,0,0,1-131.74,380,311.65,311.65,0,0,1-39.33,19.13A307.23,307.23,0,0,1,104.07,521.34l-.32-.8A307.2,307.2,0,0,1,236.9,138.77a308,308,0,0,1,346.1,28Z"/><path class="cls-6" d="M464.21,703.68a462.23,462.23,0,0,1-219-239.13l-.33-.8a462,462,0,0,1-8-325"/><path class="cls-6" d="M316.12,107.19A462.07,462.07,0,0,1,535.13,347l.32.8a462.2,462.2,0,0,1,7.78,323.84"/><polyline class="cls-6" points="504.22 691.52 503.9 690.72 445.58 545.8 389.52 406.48 333.46 267.15 274.5 120.63"/><polyline class="cls-6" points="83.92 367.57 211.92 316.06 333.46 267.15 456.61 217.6 583 166.74"/></g></g></g><path class="cls-2" d="M347.59,302.79A112.5,112.5,0,1,0,501.9,416.05L689.05,431A300.38,300.38,0,0,0,588.74,181.65L464.2,322.74A112.51,112.51,0,0,0,347.59,302.79Z"/><path class="cls-2" d="M389.4,107.32c118.65,0,231,70.88,278.18,187.65,62,153.58-12.15,328.38-165.73,390.43A298.92,298.92,0,0,1,389.6,707.32c-118.65,0-231-70.88-278.18-187.65-62-153.58,12.15-328.38,165.73-390.43A299.15,299.15,0,0,1,389.4,107.32m0-90h0a391,391,0,1,0,113,16.77,388,388,0,0,0-113-16.77Z"/><polygon class="cls-2" points="569.29 203.68 588.74 181.65 600.33 174.16 621.33 192.16 652.33 233.16 686.33 288.16 702.33 338.16 711.33 399.16 708.33 448.16 689.05 430.99 650.84 427.94 569.29 203.68"/></g><path class="cls-7" d="M501.9,416.05a112.5,112.5,0,1,1-37.7-93.31l65.35-74,59-66.78-.26-.22c-82.47-72.63-201.94-97.09-310.77-53.12C123.89,190.63,49.69,365.43,111.74,519S348.6,746.79,502.18,684.74c108.64-43.89,177.54-144.21,186.61-253.52a2.11,2.11,0,0,1,0-.25Z"/><path class="cls-3" d="M389.7,106.66a301.09,301.09,0,0,1,198.54,75l.26.22-59,66.78-65.35,74a112.5,112.5,0,1,0,37.7,93.31L688.81,431a2.11,2.11,0,0,0,0,.25c-9.07,109.31-78,209.63-186.61,253.52a299,299,0,0,1-112.25,21.92c-118.65,0-231-70.89-278.19-187.65-62-153.58,12.15-328.38,165.73-390.43A299.09,299.09,0,0,1,389.7,106.66m0-30a330,330,0,0,0-182.22,605A330,330,0,0,0,718.68,433.7l0-.33a30,30,0,0,0-27.52-32.3L504.28,386.15c-.81-.07-1.62-.1-2.42-.1A30,30,0,0,0,472,413.64a82.53,82.53,0,1,1-27.63-68.39,30,30,0,0,0,42.33-2.66l65.35-74,59-66.78a30,30,0,0,0-2.63-42.34l-.05,0-.21-.18A331.06,331.06,0,0,0,389.7,76.66v0Z"/></g></svg>