<svg id="Black" xmlns="http://www.w3.org/2000/svg" xmlns:xlink="http://www.w3.org/1999/xlink" viewBox="0 0 718.95 885.32"><defs><style>.cls-1,.cls-6,.cls-7{fill:none;}.cls-2{fill:#1a1a1a;}.cls-3{fill:#f2f2f2;}.cls-4{clip-path:url(#clip-path);}.cls-5{clip-path:url(#clip-path-3);}.cls-6{stroke:#999;stroke-width:15px;}.cls-6,.cls-7{stroke-linecap:round;stroke-linejoin:round;}.cls-7{stroke:#f2f2f2;stroke-width:2px;}</style><clipPath id="clip-path"><path class="cls-1" d="M502,416.09a112.5,112.5,0,1,1-37.7-93.31l65.36-74L588.65,182l-.26-.22c-82.47-72.63-201.94-97.09-310.77-53.12C124,190.67,49.84,365.47,111.89,519.05S348.75,746.83,502.33,684.78C611,640.89,679.87,540.57,688.94,431.26c0-.08,0-.16,0-.24Z"/></clipPath><clipPath id="clip-path-3"><circle class="cls-1" cx="389.5" cy="407.32" r="299.92"/></clipPath></defs><title>Black</title><path class="cls-2" d="M346.75,870.32a30,30,0,1,1,.39-60H359.5V780.81A374.89,374.89,0,0,1,221.91,71.94l-6.3-15.84a30,30,0,1,1,55.74-22.19l6.18,15.51q8.09-2.56,16.17-4.72a30,30,0,0,1,36.9,22.17c3.68,15.59-6.11,31.7-21.84,35.91A320.46,320.46,0,0,0,272,115.08,314.92,314.92,0,1,0,508,699.06a318.09,318.09,0,0,0,32.51-15.32A30,30,0,0,1,582.67,699s0,0,0,.06a30,30,0,0,1-13.6,37.44q-6.29,3.4-12.81,6.62l6.17,15.51a30,30,0,1,1-55.74,22.19l-6.17-15.48a372.55,372.55,0,0,1-81,15.57v29.41h12.75a30,30,0,1,1-.39,60Z"/><path class="cls-3" d="M243.47,30a15,15,0,0,1,13.94,9.46L268.66,67.7c.06.15.11.31.16.47q14.24-5.1,28.75-9a14.83,14.83,0,0,1,3.83-.51A15,15,0,0,1,316,70.33c1.88,7.94-3.24,15.85-11.13,18A329.92,329.92,0,1,0,547.64,696.92a15,15,0,0,1,21.09,7.63v0a15,15,0,0,1-6.8,18.74q-12.13,6.59-24.84,12.25c0,.12.11.23.16.35l11.26,28.26a15,15,0,1,1-27.87,11.1L509.39,747c-.05-.12-.08-.23-.12-.35A357.35,357.35,0,0,1,404.5,766.78v58.54h27.75A15,15,0,0,1,447.16,842a15.26,15.26,0,0,1-15.3,13.29H346.75a15,15,0,0,1-14.9-16.7,15.24,15.24,0,0,1,15.29-13.3H374.5v-58.6A359.88,359.88,0,0,1,241.07,79.43l-.28-.63L229.54,50.55A15,15,0,0,1,243.47,30m0-30h0a45,45,0,0,0-41.81,61.66l1.3,3.25a390,390,0,0,0-28.44,667.17,390.83,390.83,0,0,0,170,62.31v1a45,45,0,0,0,2.25,89.92h85.11a45,45,0,0,0,2.64-89.94v-.86a388.11,388.11,0,0,0,57.15-11l1.12,2.83a45,45,0,0,0,83.62-33.3l-1.14-2.85,1-.53a45.05,45.05,0,0,0,20.41-56.14l0-.07a44.71,44.71,0,0,0-41.8-28.39,45.19,45.19,0,0,0-21.48,5.46,302.9,302.9,0,0,1-31,14.6A299.92,299.92,0,1,1,277.65,129a303.75,303.75,0,0,1,35-11.72A45.51,45.51,0,0,0,339.5,97.45a44.36,44.36,0,0,0,5.7-34,45,45,0,0,0-55.37-33.21l-3.43.93-1.11-2.78A44.78,44.78,0,0,0,243.48,0Z"/><g class="cls-4"><g id="globe-2" data-name="globe"><circle class="cls-2" cx="389.5" cy="407.32" r="299.92"/><g class="cls-5"><g id="_Group_" data-name="&lt;Group&gt;"><polyline class="cls-6" points="197.09 645.89 324.75 594.52 445.73 545.84 568.32 496.51 694.38 445.79"/><polyline class="cls-6" points="104.22 521.38 245.34 464.59 389.67 406.52 535.6 347.8 675.12 291.65"/><path class="cls-6" d="M583.15,166.78A305.47,305.47,0,0,1,674.8,290.85l.32.8a307.19,307.19,0,0,1-131.74,380,311.06,311.06,0,0,1-79,32.09A307.2,307.2,0,0,1,104.22,521.38l-.32-.8A307.21,307.21,0,0,1,237,138.81a312.14,312.14,0,0,1,79.23-31.58A307.84,307.84,0,0,1,583.15,166.78Z"/><path class="cls-6" d="M464.36,703.72a462.2,462.2,0,0,1-219-239.13l-.32-.8a462.1,462.1,0,0,1-8-325"/><path class="cls-6" d="M316.27,107.23A462.07,462.07,0,0,1,535.28,347l.32.81a462.17,462.17,0,0,1,7.78,323.83"/><polyline class="cls-6" points="504.37 691.57 504.05 690.77 445.73 545.84 389.67 406.52 333.61 267.2 274.65 120.67"/><polyline class="cls-6" points="84.07 367.61 212.07 316.1 333.61 267.2 456.75 217.64 583.15 166.78"/></g></g></g><path class="cls-3" d="M347.74,302.83A112.5,112.5,0,1,0,502,416.09L689.2,431A300.38,300.38,0,0,0,588.89,181.69L464.34,322.78A112.49,112.49,0,0,0,347.74,302.83Z"/><path class="cls-3" d="M389.4,107.32c118.65,0,231,70.88,278.18,187.65,62,153.58-12.15,328.38-165.73,390.43A298.92,298.92,0,0,1,389.6,707.32c-118.65,0-231-70.88-278.18-187.65-62-153.58,12.15-328.38,165.73-390.43A299.15,299.15,0,0,1,389.4,107.32m0-90h0a391,391,0,1,0,113,16.77,388,388,0,0,0-113-16.77Z"/><polygon class="cls-3" points="569.43 203.73 588.89 181.69 600.48 174.2 621.48 192.2 652.48 233.2 686.48 288.2 702.48 338.2 711.48 399.2 708.48 448.2 689.2 431.04 650.99 427.99 569.43 203.73"/></g><path class="cls-7" d="M502,416.09a112.5,112.5,0,1,1-37.7-93.31l65.36-74L588.65,182l-.26-.22c-82.47-72.63-201.94-97.09-310.77-53.12C124,190.67,49.84,365.47,111.89,519.05S348.75,746.83,502.33,684.78C611,640.89,679.87,540.57,688.94,431.26c0-.08,0-.16,0-.24Z"/><path class="cls-3" d="M389.85,106.71a301,301,0,0,1,198.54,75l.26.22L529.7,248.74l-65.36,74A112.51,112.51,0,1,0,502,416.09L689,431c0,.08,0,.16,0,.24-9.07,109.31-78,209.63-186.61,253.52A299,299,0,0,1,390.07,706.7c-118.64,0-231-70.89-278.18-187.65C49.84,365.47,124,190.67,277.62,128.62a298.84,298.84,0,0,1,112.23-21.91m0-30a330,330,0,1,0,329,357v-.06l0-.27a30,30,0,0,0-27.52-32.3L504.43,386.19c-.81-.07-1.62-.1-2.42-.1a30,30,0,0,0-29.87,27.59,82.53,82.53,0,1,1-27.63-68.39,30,30,0,0,0,42.33-2.65l65.35-74,58.95-66.79a30,30,0,0,0-2.6-42.31l-.07-.06-.2-.18,0,0A331.14,331.14,0,0,0,389.85,76.71v0Z"/></svg>